<?xml version="1.0" standalone="no"?>
<!DOCTYPE svg PUBLIC "-//W3C//DTD SVG 20010904//EN"
  "http://www.w3.org/TR/2001/REC-SVG-20010904/DTD/svg10.dtd">
<svg version="1.0" xmlns="http://www.w3.org/2000/svg"
     width="240.000000pt" height="75.200000pt" viewBox="0 0 240.000000 75.200000"
     preserveAspectRatio="xMidYMid meet">
  <metadata>
    Created by potrace 1.13, written by Peter Selinger 2001-2015
  </metadata>
  <g transform="translate(0.000000,75.200000) scale(0.080000,-0.080000)"
     fill="#1976d2" stroke="none">
    <path d="M870 821 c0 -70 -4 -121 -10 -121 -5 0 -22 16 -37 36 -15 20 -48 61
-72 91 l-43 54 -25 -23 c-63 -59 -83 -178 -44 -264 67 -147 278 -180 400 -63
82 80 90 218 16 315 -28 36 -97 77 -152 89 l-33 7 0 -121z"/>
    <path d="M1180 700 l0 -230 81 0 80 0 -2 107 c-1 60 3 109 8 110 5 2 24 -18
43 -44 125 -178 120 -173 175 -174 28 -1 64 -2 80 -3 l30 -1 3 233 2 232 -80
0 -80 0 0 -115 c0 -63 -4 -115 -8 -115 -5 0 -45 52 -91 115 l-82 115 -79 0
-80 0 0 -230z"/>
    <path d="M1780 702 c0 -126 2 -231 4 -233 2 -2 77 -3 165 -1 l161 3 0 54 0 55
-85 0 -85 0 0 30 0 29 83 3 82 3 3 53 3 52 -85 0 -86 0 0 30 0 30 85 0 85 0 0
60 0 60 -165 0 -165 0 0 -228z"/>
    <path d="M2200 699 c0 -124 2 -228 4 -230 2 -2 41 -3 85 -1 l81 4 0 104 c0 61
-5 115 -12 127 -10 20 -131 190 -150 212 -4 5 -8 -92 -8 -216z"/>
  </g>
</svg>
