<svg xmlns="http://www.w3.org/2000/svg" height="690pt" version="1.1" viewBox="-6 0 690 690.06028" width="690pt">
<g id="surface1">
<path d="M 432.730469 619.859375 L 409.332031 643.261719 L 268.929688 643.261719 L 245.53125 619.859375 L 0.03125 619.859375 L 0.03125 643.261719 C 0.03125 669.058594 20.929688 690.058594 46.832031 690.058594 L 631.53125 690.058594 C 657.332031 690.058594 678.332031 669.160156 678.332031 643.261719 L 678.332031 619.859375 Z M 432.730469 619.859375 " style=" stroke:none;fill-rule:nonzero;fill:rgb(50.196078%,50.980392%,52.156863%);fill-opacity:1;" />
<path d="M 268.929688 643.261719 L 409.230469 643.261719 L 432.628906 619.859375 L 654.832031 619.859375 L 654.832031 245.660156 L 23.429688 245.660156 L 23.429688 619.859375 L 245.628906 619.859375 Z M 58.429688 280.761719 L 619.730469 280.761719 Z M 432.730469 432.761719 C 432.730469 484.460938 390.832031 526.359375 339.128906 526.359375 C 287.429688 526.359375 245.53125 484.460938 245.53125 432.761719 C 245.53125 381.058594 287.429688 339.160156 339.128906 339.160156 C 390.832031 339.160156 432.730469 381.058594 432.730469 432.761719 Z M 58.429688 467.859375 L 58.429688 584.761719 L 619.730469 584.761719 L 58.429688 584.761719 Z M 58.429688 467.859375 " style=" stroke:none;fill-rule:nonzero;fill:rgb(92.156863%,89.803922%,86.666667%);fill-opacity:1;" />
<path d="M 245.53125 432.761719 C 245.53125 484.460938 287.429688 526.359375 339.128906 526.359375 C 390.832031 526.359375 432.730469 484.460938 432.730469 432.761719 C 432.730469 381.058594 390.832031 339.160156 339.128906 339.160156 C 287.429688 339.160156 245.53125 381.058594 245.53125 432.761719 Z M 372.230469 465.859375 L 339.128906 432.761719 L 306.03125 465.859375 L 339.128906 432.761719 L 306.03125 399.660156 L 339.128906 432.761719 L 372.230469 399.660156 L 339.128906 432.761719 Z M 372.230469 465.859375 " style=" stroke:none;fill-rule:nonzero;fill:rgb(100%,47.45098%,33.72549%);fill-opacity:1;" />
<path d="M 481.929688 107.261719 C 477.730469 107.261719 473.832031 104.960938 471.730469 101.261719 C 430.730469 28.058594 338.230469 1.859375 265.03125 42.761719 C 240.53125 56.460938 220.332031 76.660156 206.53125 101.261719 C 203.332031 106.859375 196.230469 108.859375 190.628906 105.761719 C 185.03125 102.660156 183.03125 95.460938 186.128906 89.761719 C 233.429688 5.261719 340.230469 -24.941406 424.730469 22.359375 C 452.929688 38.160156 476.332031 61.460938 492.128906 89.761719 C 495.332031 95.359375 493.332031 102.558594 487.628906 105.660156 C 485.929688 106.660156 483.929688 107.261719 481.929688 107.261719 Z M 481.929688 107.261719 " style=" stroke:none;fill-rule:nonzero;fill:rgb(0%,42.745098%,94.117647%);fill-opacity:1;" />
<path d="M 441.429688 130.558594 C 437.230469 130.558594 433.230469 128.261719 431.230469 124.558594 C 403.128906 73.660156 339.03125 55.261719 288.230469 83.359375 C 270.929688 92.960938 256.628906 107.160156 247.03125 124.558594 C 243.929688 130.160156 236.730469 132.261719 231.128906 129.058594 C 225.53125 125.960938 223.429688 118.761719 226.628906 113.160156 C 261.03125 51.058594 339.230469 28.558594 401.429688 62.960938 C 422.53125 74.660156 439.929688 92.058594 451.628906 113.160156 C 454.730469 118.761719 452.730469 125.960938 447.128906 129.058594 C 445.429688 130.058594 443.429688 130.558594 441.429688 130.558594 Z M 441.429688 130.558594 " style=" stroke:none;fill-rule:nonzero;fill:rgb(0%,42.745098%,94.117647%);fill-opacity:1;" />
<path d="M 401.03125 153.960938 C 396.730469 153.960938 392.832031 151.660156 390.730469 147.859375 C 375.429688 119.359375 339.929688 108.660156 311.429688 123.960938 C 301.332031 129.359375 293.03125 137.660156 287.53125 147.859375 C 284.429688 153.558594 277.332031 155.660156 271.628906 152.558594 C 265.929688 149.460938 263.832031 142.359375 266.929688 136.660156 C 288.429688 96.859375 338.128906 81.960938 377.929688 103.359375 C 392.03125 110.960938 403.628906 122.558594 411.230469 136.660156 C 414.332031 142.359375 412.230469 149.460938 406.53125 152.558594 C 404.832031 153.460938 402.929688 153.960938 401.03125 153.960938 Z M 401.03125 153.960938 " style=" stroke:none;fill-rule:nonzero;fill:rgb(0%,42.745098%,94.117647%);fill-opacity:1;" />
<path d="M 339.128906 210.558594 C 319.730469 210.558594 304.03125 194.859375 304.03125 175.460938 C 304.03125 156.058594 319.730469 140.359375 339.128906 140.359375 C 358.53125 140.359375 374.230469 156.058594 374.230469 175.460938 C 374.230469 194.859375 358.53125 210.558594 339.128906 210.558594 Z M 339.128906 163.859375 C 332.628906 163.859375 327.429688 169.058594 327.429688 175.558594 C 327.429688 182.058594 332.628906 187.261719 339.128906 187.261719 C 345.628906 187.261719 350.832031 182.058594 350.832031 175.558594 C 350.832031 169.058594 345.628906 163.859375 339.128906 163.859375 Z M 339.128906 163.859375 " style=" stroke:none;fill-rule:nonzero;fill:rgb(0%,42.745098%,94.117647%);fill-opacity:1;" />
<path d="M 70.128906 397.660156 L 46.832031 397.660156 L 46.832031 269.058594 L 631.429688 269.058594 L 631.429688 396.960938 L 608.128906 396.960938 L 608.128906 292.460938 L 70.128906 292.460938 Z M 70.128906 397.660156 " style=" stroke:none;fill-rule:nonzero;fill:rgb(85.098039%,80%,73.72549%);fill-opacity:1;" />
<path d="M 631.429688 596.460938 L 46.832031 596.460938 L 46.832031 467.859375 L 70.128906 467.859375 L 70.128906 573.058594 L 608.128906 573.058594 L 608.128906 467.859375 L 631.429688 467.859375 Z M 631.429688 596.460938 " style=" stroke:none;fill-rule:nonzero;fill:rgb(85.098039%,80%,73.72549%);fill-opacity:1;" />
<path d="M 514.53125 421.058594 L 537.929688 421.058594 L 537.929688 444.460938 L 514.53125 444.460938 Z M 514.53125 421.058594 " style=" stroke:none;fill-rule:nonzero;fill:rgb(0%,42.745098%,94.117647%);fill-opacity:1;" />
<path d="M 561.332031 421.058594 L 584.730469 421.058594 L 584.730469 444.460938 L 561.332031 444.460938 Z M 561.332031 421.058594 " style=" stroke:none;fill-rule:nonzero;fill:rgb(0%,42.745098%,94.117647%);fill-opacity:1;" />
<path d="M 608.128906 421.058594 L 631.53125 421.058594 L 631.53125 444.460938 L 608.128906 444.460938 Z M 608.128906 421.058594 " style=" stroke:none;fill-rule:nonzero;fill:rgb(0%,42.745098%,94.117647%);fill-opacity:1;" />
<path d="M 467.730469 421.058594 L 491.128906 421.058594 L 491.128906 444.460938 L 467.730469 444.460938 Z M 467.730469 421.058594 " style=" stroke:none;fill-rule:nonzero;fill:rgb(0%,42.745098%,94.117647%);fill-opacity:1;" />
<path d="M 140.332031 421.058594 L 163.730469 421.058594 L 163.730469 444.460938 L 140.332031 444.460938 Z M 140.332031 421.058594 " style=" stroke:none;fill-rule:nonzero;fill:rgb(0%,42.745098%,94.117647%);fill-opacity:1;" />
<path d="M 93.53125 421.058594 L 116.929688 421.058594 L 116.929688 444.460938 L 93.53125 444.460938 Z M 93.53125 421.058594 " style=" stroke:none;fill-rule:nonzero;fill:rgb(0%,42.745098%,94.117647%);fill-opacity:1;" />
<path d="M 46.832031 421.058594 L 70.230469 421.058594 L 70.230469 444.460938 L 46.832031 444.460938 Z M 46.832031 421.058594 " style=" stroke:none;fill-rule:nonzero;fill:rgb(0%,42.745098%,94.117647%);fill-opacity:1;" />
<path d="M 187.128906 421.058594 L 210.53125 421.058594 L 210.53125 444.460938 L 187.128906 444.460938 Z M 187.128906 421.058594 " style=" stroke:none;fill-rule:nonzero;fill:rgb(0%,42.745098%,94.117647%);fill-opacity:1;" />
<path d="M 306.03125 477.558594 C 299.53125 477.558594 294.332031 472.359375 294.332031 465.859375 C 294.332031 462.761719 295.53125 459.761719 297.730469 457.558594 L 363.929688 391.359375 C 368.53125 386.859375 375.929688 386.960938 380.429688 391.660156 C 384.832031 396.160156 384.832031 403.359375 380.429688 407.859375 L 314.230469 474.058594 C 312.128906 476.359375 309.128906 477.558594 306.03125 477.558594 Z M 306.03125 477.558594 " style=" stroke:none;fill-rule:nonzero;fill:rgb(94.509804%,94.901961%,94.901961%);fill-opacity:1;" />
<path d="M 372.230469 477.558594 C 369.128906 477.558594 366.128906 476.359375 363.929688 474.160156 L 297.730469 407.960938 C 293.230469 403.359375 293.332031 395.960938 298.03125 391.460938 C 302.53125 387.058594 309.730469 387.058594 314.230469 391.460938 L 380.429688 457.660156 C 385.03125 462.261719 385.03125 469.660156 380.429688 474.160156 C 378.332031 476.359375 375.332031 477.558594 372.230469 477.558594 Z M 372.230469 477.558594 " style=" stroke:none;fill-rule:nonzero;fill:rgb(94.509804%,94.901961%,94.901961%);fill-opacity:1;" />
</g>
</svg>